<?xml version="1.0" encoding="UTF-8" standalone="no"?>
<!-- Created with Inkscape (http://www.inkscape.org/) -->

<svg
   xmlns:dc="http://purl.org/dc/elements/1.1/"
   xmlns:cc="http://creativecommons.org/ns#"
   xmlns:rdf="http://www.w3.org/1999/02/22-rdf-syntax-ns#"
   xmlns:svg="http://www.w3.org/2000/svg"
   xmlns="http://www.w3.org/2000/svg"
   xmlns:sodipodi="http://sodipodi.sourceforge.net/DTD/sodipodi-0.dtd"
   xmlns:inkscape="http://www.inkscape.org/namespaces/inkscape"
   version="1.1"
   width="90"
   height="90"
   id="svg5587"
   inkscape:version="0.48.5 r10040"
   sodipodi:docname="rotateZ.svg">
  <sodipodi:namedview
     pagecolor="#ffffff"
     bordercolor="#666666"
     borderopacity="1"
     objecttolerance="10"
     gridtolerance="10"
     guidetolerance="10"
     inkscape:pageopacity="0"
     inkscape:pageshadow="2"
     inkscape:window-width="1596"
     inkscape:window-height="877"
     id="namedview7823"
     showgrid="false"
     inkscape:zoom="2.6222222"
     inkscape:cx="-22.309322"
     inkscape:cy="45"
     inkscape:window-x="0"
     inkscape:window-y="19"
     inkscape:window-maximized="0"
     inkscape:current-layer="svg5587" />
  <defs
     id="defs5589" />
  <metadata
     id="metadata5592">
    <rdf:RDF>
      <cc:Work
         rdf:about="">
        <dc:format>image/svg+xml</dc:format>
        <dc:type
           rdf:resource="http://purl.org/dc/dcmitype/StillImage" />
        <dc:title />
      </cc:Work>
    </rdf:RDF>
  </metadata>
  <g
     transform="translate(-399.93494,-407.49239)"
     id="layer1">
    <g
       transform="translate(87.967162,232.8859)"
       id="g5369">
      <path
         d="m 194.10818,217.03952 c 5.89829,-13.90518 21.95218,-20.39603 35.85735,-14.49773 13.90518,5.89829 20.39603,21.95218 14.49774,35.85735 -5.8983,13.90518 -21.95219,20.39603 -35.85736,14.49773 -1.17668,-0.49912 -2.31692,-1.08012 -3.41234,-1.73872"
         transform="matrix(-1,0,0,-1,577.34275,448.74529)"
         id="path4965"
         style="fill:none;fill-opacity:1;stroke:#000000;stroke-width:7.59999990000000025;stroke-linecap:butt;stroke-linejoin:miter;stroke-miterlimit:4.19999980999999956;stroke-opacity:1;stroke-dashoffset:13.67999999999999972;marker-end:none" />
      <path
         d="m 362.27839,202.81892 11.77928,-15.78794 11.71999,21.0324 z"
         id="path5351"
         style="fill:#000000;fill-opacity:1;stroke:none" />
      <path
         d="m 325.01658,280.10056 c 0,2.78945 -2.2613,5.05076 -5.05076,5.05076 -2.78946,0 -5.05076,-2.26131 -5.05076,-5.05076 0,-2.78946 2.2613,-5.05077 5.05076,-5.05077 2.78946,0 5.05076,2.26131 5.05076,5.05077 z"
         transform="translate(37.759572,-59.074595)"
         id="path5355"
         style="fill:#000000;fill-opacity:1;stroke:none" />
    </g>
  </g>
</svg>
